<svg xmlns="http://www.w3.org/2000/svg" id="Camada_2" viewBox="0 0 315.31 74.49"><defs><style>.cls-1{fill:#3fd0d8;}</style></defs><g id="Camada_1-2"><g><polygon class="cls-1" points="0 43.24 8.9 43.24 8.9 25.86 26.01 25.86 26.01 18.52 8.9 18.52 8.9 8.49 27.86 8.49 27.86 1.16 0 1.16 0 43.24"></polygon><rect class="cls-1" x="33.84" y="1.16" width="8.9" height="42.08"></rect><path class="cls-1" d="M69.8,27.42h9.03c-.04,1.68-.4,3.15-1.13,4.4-.76,1.32-1.86,2.33-3.29,3.05-1.43,.72-3.15,1.08-5.17,1.08-2.22,0-4.14-.54-5.77-1.61s-2.89-2.64-3.78-4.7-1.34-4.55-1.34-7.48,.45-5.42,1.36-7.45c.9-2.03,2.17-3.58,3.79-4.65,1.62-1.07,3.51-1.6,5.66-1.6,1.15,0,2.2,.14,3.15,.43,.95,.29,1.8,.7,2.55,1.24s1.38,1.2,1.9,1.97c.52,.77,.92,1.66,1.21,2.66h9.04c-.29-2.08-.94-3.99-1.95-5.72-1.01-1.73-2.32-3.23-3.91-4.49-1.6-1.26-3.42-2.24-5.48-2.93-2.05-.69-4.27-1.04-6.66-1.04-2.78,0-5.36,.49-7.75,1.46-2.38,.97-4.47,2.39-6.27,4.25s-3.19,4.13-4.18,6.81c-.99,2.68-1.49,5.72-1.49,9.13,0,4.44,.83,8.27,2.5,11.5,1.66,3.23,3.99,5.71,6.98,7.46,2.99,1.75,6.45,2.62,10.4,2.62,3.53,0,6.67-.72,9.41-2.15,2.74-1.43,4.89-3.47,6.45-6.12s2.34-5.83,2.34-9.52v-5.3h-17.61v6.7Z"></path><polygon class="cls-1" points="120.43 27.63 120.06 27.63 101.9 1.16 94.09 1.16 94.09 43.24 102.99 43.24 102.99 16.76 103.29 16.76 121.6 43.24 129.29 43.24 129.29 1.16 120.43 1.16 120.43 27.63"></polygon><path class="cls-1" d="M147,33.65h15.19l3.12,9.6h9.53L160.33,1.16h-11.47l-14.53,42.08h9.53l3.12-9.6Zm7.77-22.87l5.17,15.92h-10.68l5.18-15.92h.33Z"></path><path class="cls-1" d="M188.79,28.32h6.49l7.97,14.92h9.82l-8.94-16.36c.13-.06,.27-.1,.4-.16,2.28-1.07,4.02-2.61,5.23-4.61s1.81-4.41,1.81-7.2-.59-5.2-1.78-7.26c-1.19-2.06-2.9-3.66-5.16-4.79-2.25-1.13-4.97-1.7-8.15-1.7h-16.6V43.24h8.9v-14.92Zm6-19.89c1.71,0,3.13,.25,4.26,.75,1.13,.5,1.97,1.23,2.53,2.19,.55,.96,.83,2.14,.83,3.53s-.28,2.54-.83,3.47c-.56,.93-1.39,1.63-2.52,2.1-1.12,.47-2.53,.7-4.23,.7h-6.04V8.43h6Z"></path><path class="cls-1" d="M157.34,56.32c-.4-.85-1.01-1.53-1.84-2.03s-1.81-.75-2.96-.75h-.08c-2.02,0-3.85,.69-5.5,2.06-1.65,1.37-2.67,3.1-3.07,5.17-.11,.56-.16,1.1-.16,1.61,0,1.36,.48,2.64,1.45,3.83,.96,1.19,2.48,1.79,4.56,1.79,1.15,0,2.23-.25,3.26-.74,1.03-.49,1.9-1.15,2.6-1.99l-.33,1.66c-.38,1.87-1.12,3.24-2.22,4.11-1.1,.86-2.31,1.3-3.64,1.3-1.02,0-1.93-.26-2.74-.78-.81-.52-1.27-1.31-1.38-2.36h-2.32c.07,1.73,.69,3.04,1.85,3.94,1.16,.9,2.56,1.35,4.2,1.35,.91,0,1.8-.15,2.67-.45,.87-.3,1.71-.75,2.52-1.34,.81-.59,1.51-1.4,2.11-2.43s1.03-2.2,1.28-3.5l2.54-12.98h-2.32l-.49,2.54Zm-.74,4.45c-.29,1.46-1.05,2.68-2.26,3.67-1.22,.99-2.56,1.49-4.01,1.49s-2.6-.49-3.44-1.47c-.62-.73-.93-1.59-.93-2.59,0-.35,.04-.71,.11-1.09,.29-1.46,1.04-2.68,2.24-3.67s2.54-1.49,4.01-1.49,2.57,.44,3.3,1.31c.73,.87,1.09,1.8,1.09,2.78,0,.35-.04,.7-.11,1.06Z"></path><path class="cls-1" d="M170.16,53.54c-2.06,0-3.94,.73-5.66,2.18-1.72,1.46-2.78,3.21-3.18,5.26-.11,.55-.16,1.07-.16,1.58,0,1.38,.5,2.71,1.5,3.98,1,1.27,2.53,1.91,4.58,1.91s3.96-.74,5.7-2.21c1.73-1.46,2.79-3.21,3.19-5.26,.11-.53,.16-1.03,.16-1.5,0-1.42-.51-2.76-1.53-4.04-1.02-1.27-2.56-1.91-4.61-1.91Zm3.79,7.45c-.29,1.47-1.05,2.73-2.26,3.76-1.22,1.04-2.56,1.55-4.01,1.55s-2.58-.52-3.38-1.55c-.6-.75-.9-1.63-.9-2.65,0-.34,.04-.72,.11-1.12,.29-1.47,1.04-2.73,2.25-3.76,1.21-1.04,2.54-1.55,4-1.55s2.54,.46,3.25,1.36c.71,.91,1.06,1.87,1.06,2.89,0,.35-.04,.7-.11,1.06Z"></path><path class="cls-1" d="M183.69,55.8h4.72l.38-2.02h-4.69l.87-4.47-2.43,.71-.74,3.76h-3l-.41,2.02h3l-1.53,7.94c-.11,.53-.16,1.01-.16,1.45,0,1.22,.36,2.08,1.09,2.58,.73,.5,1.61,.75,2.65,.75,.75,0,1.61-.12,2.59-.35l.44-2.24c-.93,.25-1.7,.38-2.32,.38-.53,0-1.01-.12-1.43-.35-.43-.24-.64-.73-.64-1.47,0-.24,.03-.49,.08-.76l1.53-7.91Z"></path><path class="cls-1" d="M202.4,56.43c-.38-.89-.99-1.6-1.81-2.11-.83-.52-1.81-.78-2.96-.78-2.02,0-3.87,.72-5.56,2.17-1.69,1.45-2.74,3.21-3.14,5.28-.11,.55-.16,1.06-.16,1.55,0,1.4,.49,2.74,1.47,4.01,.98,1.27,2.47,1.91,4.47,1.91,1.15,0,2.24-.26,3.27-.78,1.04-.52,1.92-1.21,2.65-2.09l-.52,2.65h2.32l2.81-14.46h-2.32l-.52,2.65Zm-.74,4.56c-.29,1.46-1.05,2.71-2.29,3.76-1.24,1.05-2.58,1.58-4.04,1.58s-2.62-.52-3.44-1.55c-.6-.75-.9-1.62-.9-2.62,0-.38,.05-.77,.14-1.17,.27-1.47,1.02-2.73,2.24-3.78,1.22-1.04,2.56-1.57,4.04-1.57s2.55,.46,3.27,1.39c.73,.93,1.09,1.9,1.09,2.92,0,.33-.04,.67-.11,1.04Z"></path><path class="cls-1" d="M209.44,54.66c-1.25,.75-2.01,1.77-2.26,3.08-.05,.24-.08,.47-.08,.71,0,.76,.35,1.42,1.04,1.96,.69,.55,1.94,1,3.74,1.36,1.35,.27,2.29,.6,2.82,.98,.54,.38,.8,.8,.8,1.25,0,.09,0,.18-.03,.27-.13,.64-.54,1.15-1.24,1.54-.7,.39-1.51,.59-2.44,.59-1.11,0-2.2-.26-3.27-.78-1.07-.52-1.86-1.11-2.37-1.79l-.49,2.48c1.64,1.42,3.55,2.13,5.73,2.13,1.58,0,2.99-.35,4.23-1.06,1.24-.71,1.98-1.74,2.24-3.08,.05-.25,.08-.49,.08-.71,0-.75-.29-1.43-.87-2.05-.58-.62-1.72-1.12-3.41-1.5-.13-.04-.3-.07-.52-.11-1.36-.31-2.3-.59-2.81-.85-.51-.25-.76-.6-.76-1.04,0-.11,0-.22,.03-.33,.13-.67,.56-1.2,1.3-1.6,.74-.39,1.59-.59,2.55-.59,1.75,0,3.49,.65,5.24,1.96l.44-2.29c-1.44-1.13-3.2-1.69-5.29-1.69-1.65,0-3.11,.37-4.36,1.12Z"></path><path class="cls-1" d="M315.21,.84c-.63-1.21-3.68-.79-4.48-.68-13.92,1.84-44.33,0-44.59,0-.12,0-.24,0-.36,0-.16,0-.26,.06-.33,.2-.03,.05-.06,.1-.1,.15-.02,.02-.03,.04-.05,.07-.01,.05-.01,.11-.03,.15-.41,.86-.84,1.71-1.35,2.52-.67,1.05-1.42,2.05-2.23,2.99-.76,.88-1.6,1.68-2.48,2.43-.89,.75-1.83,1.42-2.83,2.01-1.83,1.08-3.74,1.95-5.8,2.48-.43,.11-.87,.21-1.31,.32-.2,.05-.4,.11-.53,.29-.39,.53-.88,.97-1.34,1.44-.59,.61-1.21,1.19-1.88,1.72-1.02,.8-2.09,1.53-3.23,2.17-1.76,.99-3.62,1.73-5.57,2.24-.97,.25-1.95,.45-2.95,.55-.7,.07-1.41,.15-2.12,.18-.31,.01-.62,0-.94,0-.18,0-.25,.05-.29,.23-.02,.07-.03,.14-.04,.2-.07,.7-.16,1.41-.2,2.11-.05,.85-.08,1.69-.11,2.54-.03,.85,.03,1.69,.08,2.54,.02,.45-.02,.91,.04,1.35,.09,.62,.07,1.24,.16,1.86,.11,.73,.14,1.48,.25,2.21,.15,1.04,.32,2.08,.5,3.12,.23,1.31,.5,2.61,.81,3.91,.05,.23,.15,.46,.13,.71h0s0,0,0,0c0,0,0,0,0,.01,0,0,0,0,0,0,0,.02,0,.04-.01,.06,0,.04-.01,.08-.01,.12h0c0,.07,0,.14,.02,.21,.03,.15,.08,.29,.11,.43,.33,1.35,.7,2.68,1.1,4,.03,.11,.06,.21,.1,.32,.98,3.23,2.13,6.41,3.37,9.55,.08,.19,.15,.38,.23,.56,.02,.04,.03,.09,.05,.13,.1,.24,.2,.48,.31,.71,.07,.13,.13,.31,.31,.3,.16-.01,.21-.17,.27-.29,.06-.13,.1-.26,.14-.39,.27-.81,.58-1.61,.96-2.38,.02-.04,.04-.07,.06-.11,0,0,0,0,0,0,.02-.04,.05-.09,.07-.14,0,0,0,0,0-.01,.02-.05,.04-.09,.06-.14,.31-.67,.64-1.33,1.04-1.95h0s.02-.03,.03-.05c.01-.02,.02-.03,.03-.05,.01-.02,.02-.04,.03-.06,.03-.06,.06-.11,.09-.17,.02-.03,.04-.07,.06-.11,0,0,0,0,0,0h0c.03-.05,.06-.1,.09-.14,0-.01,.02-.03,.03-.04,.02-.03,.04-.06,.06-.1,.03-.05,.06-.1,.09-.14,.01-.02,.02-.03,.04-.04,.03-.03,.05-.06,.07-.09,.02-.03,.05-.07,.07-.1,0,0,.01-.02,.01-.02,.06-.1,.12-.2,.19-.29,0,0,0-.01,.01-.02,0-.01,.02-.02,.02-.04,.02-.03,.05-.07,.07-.1,.02-.03,.05-.07,.07-.1,.04-.07,.09-.13,.14-.19,.01-.01,.02-.03,.04-.04,.03-.03,.05-.06,.08-.09,.02-.03,.05-.06,.07-.1,0,0,0,0,0,0,.03-.04,.05-.08,.08-.11,.02-.03,.04-.05,.06-.08,.02-.02,.04-.04,.05-.07,0-.01,.02-.02,.02-.03,.05-.07,.1-.14,.15-.21h0s.03-.04,.04-.06c.01-.02,.03-.03,.04-.05,.03-.03,.05-.06,.08-.1,.01-.02,.03-.03,.04-.04,.03-.03,.05-.06,.08-.09,.02-.03,.05-.06,.07-.1,.04-.06,.09-.13,.14-.18,.03-.03,.05-.06,.08-.09,.04-.04,.09-.09,.13-.13,.01-.01,.03-.03,.04-.04,.03-.03,.06-.06,.08-.1,.03-.03,.05-.07,.07-.1,0,0,0,0,0-.01,.07-.11,.16-.21,.25-.3,0,0,.01-.01,.02-.02,.01-.02,.03-.03,.04-.04,.03-.03,.06-.06,.09-.09,.03-.03,.06-.06,.09-.09,.04-.04,.09-.09,.13-.13,.01-.01,.03-.03,.04-.04,.03-.03,.06-.06,.09-.09,.01-.01,.03-.03,.04-.04,.03-.03,.06-.06,.09-.1,0,0,.01-.02,.02-.03,.02-.03,.04-.05,.05-.08,.45-.47,.87-.97,1.41-1.36,0,0,.01,0,.02-.01,.04-.03,.08-.05,.12-.09,.04-.03,.08-.06,.11-.1,2.52-2.36,5.38-4.24,8.43-5.84,4.42-2.32,9.1-3.97,13.92-5.23,2.8-.73,5.64-1.26,8.47-1.84,4.03-.83,7.93-2.11,11.71-3.72,5.1-2.17,9.85-4.91,14.07-8.52,.41-.35,.92-.61,1.14-1.15,0,0,0-.01,0-.02,.12-.13,.23-.26,.35-.38,.89-.9,1.8-1.77,2.64-2.73,.84-.97,1.64-1.96,2.39-3.01,1.26-1.77,2.34-3.63,3.26-5.6,1.03-2.21,.63-2.01,1.74-4.45,1.23-2.69,1.97-3.52,1.59-4.25Z"></path><path class="cls-1" d="M295.18,30.74c-.17,.09-.34,.17-.51,.27-1.87,1.01-3.79,1.93-5.76,2.76-3.42,1.44-6.93,2.6-10.54,3.47-1.4,.34-2.82,.56-4.22,.84-2.85,.57-5.68,1.24-8.46,2.09-3.29,1-6.49,2.21-9.56,3.75-3.06,1.54-5.93,3.38-8.48,5.67-.06,.06-.14,.1-.21,.15-.34,.22-.59,.52-.85,.82h0c-.18,.1-.32,.23-.41,.42h0c-.16,.12-.32,.23-.4,.43h0s0,0,0,0c-.14,.07-.26,.15-.3,.32h0s0,0,0,0c-.05,.02-.09,.05-.1,.11,0,0,0,0,0,0h0c-.11,.1-.22,.2-.32,.3,0,0,0,0,0,0-.1,.11-.2,.22-.29,.33,0,0,0,0,0,0-.26,.32-.49,.66-.72,1h0s0,0,0,0c-.09,.03-.06,.14-.12,.19-.47,.58-.97,1.16-1.24,1.87t0,0h0c-.08,.1-.15,.2-.19,.32,0,0,0,0,0,0h0c-.13,.13-.23,.27-.33,.42,0,0,0,0,0,0-.07,.11-.13,.22-.19,.33-.73,1.37-1.27,2.82-1.68,4.32-.02,.09-.04,.18-.06,.27-.02,.11-.04,.22-.07,.33-.03,.11-.05,.23-.09,.34-.01,.05-.02,.11-.03,.17,0,.05,0,.11,0,.17,0,.04,0,.09,0,.13h0s0,.02,0,.02c0,.3-.01,.6-.02,.9h0c0,.12,0,.23-.01,.34,0,.16-.01,.33-.02,.49,0,.03,0,.06,0,.09h0s0,.03,0,.05c-.02,.34-.04,.67-.08,1.01-.01,.09,.02,.18,.03,.27h0s0,.05,0,.07h0s0,.03,0,.04c0,.01,0,.02,0,.03h0c0,.06,0,.12,.07,.15h0s0,0,0,0c.04,.09,.11,.07,.18,.03,.03,0,.07,0,.11,0,.39,0,.77-.04,1.15-.11,.08-.02,.16-.06,.25-.07,.93-.1,1.85-.27,2.77-.43,2.36-.41,4.64-1.09,6.83-2.09,.1-.05,.21-.08,.32-.12,0,0,.01,0,.02,0,.23,.05,.41-.06,.59-.16,.9-.48,1.79-.99,2.62-1.59,1.07-.78,2.03-1.66,2.99-2.57,1.37-1.29,2.49-2.74,3.08-4.55,.22-.68,.49-1.33,.85-1.95,.54-.93,1.34-1.5,2.42-1.58,.76-.05,1.53-.09,2.28,0,2.07,.25,4.08-.04,6.07-.54,3.11-.79,6.14-1.81,9.08-3.1,3.82-1.69,7.07-4.13,9.67-7.42,.13-.16,.28-.31,.27-.54,0,0,0-.01,.01-.02,.08-.13,.15-.26,.24-.38,1.63-2.32,2.79-4.86,3.56-7.58,.02-.07,.04-.13,.05-.2,0-.03,0-.07-.02-.09-.04-.05-.09-.03-.14,0Z"></path><path class="cls-1" d="M231.43,18.96c.4,0,.79-.06,1.19-.08,.66-.04,1.31-.14,1.95-.25,1.69-.31,3.32-.84,4.88-1.56,1.53-.71,2.94-1.62,4.25-2.67,.12-.1,.25-.18,.33-.37-.06-.03-.1-.05-.13-.05-.74-.03-1.48-.11-2.22-.19-1.22-.15-2.42-.42-3.6-.76-.15-.04-.29-.11-.43-.18-.89-.5-1.03-1.68-.3-2.39,.41-.39,.89-.53,1.43-.38,.88,.25,1.77,.47,2.68,.62,.77,.13,1.54,.19,2.32,.25,.98,.07,1.97-.02,2.95-.1,.25-.02,.45-.11,.61-.33,.96-1.33,1.74-2.75,2.36-4.26,.38-.93,.69-1.89,.92-2.86,.23-.96,.4-1.93,.48-2.91,.02-.24-.03-.31-.28-.31-.33,0-.66,0-.99,0-.85-.02-1.7,.07-2.53,.23-1.19,.23-2.34,.62-3.44,1.13-1.77,.82-3.4,1.87-4.85,3.17-.87,.77-1.68,1.6-2.43,2.49-1.17,1.38-2.15,2.88-2.98,4.49-.59,1.14-1.1,2.32-1.53,3.52-.4,1.11-.71,2.24-.98,3.39-.08,.33-.14,.4,.34,.39Z"></path><path class="cls-1" d="M251.93,9.53c.96-.39,1.89-.85,2.79-1.38,1.76-1.06,3.34-2.34,4.69-3.89,.71-.81,1.35-1.66,1.92-2.57,.25-.4,.48-.8,.7-1.21,.15-.27,.11-.3-.21-.31-.02,0-.03,0-.05,0h-7.01c-.09,0-.17,0-.26,0-.12,0-.2,.06-.23,.17-.03,.12-.07,.24-.07,.35-.01,.36-.07,.72-.11,1.08-.08,.7-.22,1.4-.38,2.09-.41,1.83-1.04,3.58-1.89,5.26-.07,.14-.13,.28-.2,.44,.15,.06,.23,0,.31-.03Z"></path></g></g></svg>